<?xml version="1.0" encoding="utf-8" standalone="no"?>
<!DOCTYPE svg PUBLIC "-//W3C//DTD SVG 1.1//EN"
  "http://www.w3.org/Graphics/SVG/1.1/DTD/svg11.dtd">
<svg xmlns:xlink="http://www.w3.org/1999/xlink" width="950.4pt" height="417.6pt" viewBox="0 0 950.4 417.6" xmlns="http://www.w3.org/2000/svg" version="1.1">
 <metadata>
  <rdf:RDF xmlns:dc="http://purl.org/dc/elements/1.1/" xmlns:cc="http://creativecommons.org/ns#" xmlns:rdf="http://www.w3.org/1999/02/22-rdf-syntax-ns#">
   <cc:Work>
    <dc:type rdf:resource="http://purl.org/dc/dcmitype/StillImage"/>
    <dc:format>image/svg+xml</dc:format>
    <dc:creator>
     <cc:Agent>
      <dc:title>Matplotlib v3.9.2, https://matplotlib.org/</dc:title>
     </cc:Agent>
    </dc:creator>
   </cc:Work>
  </rdf:RDF>
 </metadata>
 <defs>
  <style type="text/css">*{stroke-linejoin: round; stroke-linecap: butt}</style>
 </defs>
 <g id="figure_1">
  <g id="patch_1">
   <path d="M 0 417.6
L 950.4 417.6
L 950.4 0
L 0 0
z
" style="fill: #ffffff"/>
  </g>
  <g id="axes_1">
   <g id="patch_2">
    <path d="M 33.264 329.904
L 947.5488 329.904
L 947.5488 108.576
L 33.264 108.576
z
" style="fill: #ffffff"/>
   </g>
   <g id="matplotlib.axis_1"/>
   <g id="matplotlib.axis_2">
    <g id="ytick_1">
     <g id="line2d_1">
      <path d="M 33.264 329.904
L 947.5488 329.904
" clip-path="url(#p1ff24d9fdd)" style="fill: none; stroke: #e9edf4; stroke-width: 0.8; stroke-linecap: square"/>
     </g>
     <g id="line2d_2"/>
     <g id="text_1">
      <text style="fill: #8190a6; font: 10.5px 'DejaVu Sans'; text-anchor: end" x="29.264" y="333.89318" transform="rotate(-0 29.264 333.89318)">0</text>
     </g>
    </g>
    <g id="ytick_2">
     <g id="line2d_3">
      <path d="M 33.264 288.917333
L 947.5488 288.917333
" clip-path="url(#p1ff24d9fdd)" style="fill: none; stroke: #e9edf4; stroke-width: 0.8; stroke-linecap: square"/>
     </g>
     <g id="line2d_4"/>
     <g id="text_2">
      <text style="fill: #8190a6; font: 10.5px 'DejaVu Sans'; text-anchor: end" x="29.264" y="292.906513" transform="rotate(-0 29.264 292.906513)">20</text>
     </g>
    </g>
    <g id="ytick_3">
     <g id="line2d_5">
      <path d="M 33.264 247.930667
L 947.5488 247.930667
" clip-path="url(#p1ff24d9fdd)" style="fill: none; stroke: #e9edf4; stroke-width: 0.8; stroke-linecap: square"/>
     </g>
     <g id="line2d_6"/>
     <g id="text_3">
      <text style="fill: #8190a6; font: 10.5px 'DejaVu Sans'; text-anchor: end" x="29.264" y="251.919846" transform="rotate(-0 29.264 251.919846)">40</text>
     </g>
    </g>
    <g id="ytick_4">
     <g id="line2d_7">
      <path d="M 33.264 206.944
L 947.5488 206.944
" clip-path="url(#p1ff24d9fdd)" style="fill: none; stroke: #e9edf4; stroke-width: 0.8; stroke-linecap: square"/>
     </g>
     <g id="line2d_8"/>
     <g id="text_4">
      <text style="fill: #8190a6; font: 10.5px 'DejaVu Sans'; text-anchor: end" x="29.264" y="210.93318" transform="rotate(-0 29.264 210.93318)">60</text>
     </g>
    </g>
    <g id="ytick_5">
     <g id="line2d_9">
      <path d="M 33.264 165.957333
L 947.5488 165.957333
" clip-path="url(#p1ff24d9fdd)" style="fill: none; stroke: #e9edf4; stroke-width: 0.8; stroke-linecap: square"/>
     </g>
     <g id="line2d_10"/>
     <g id="text_5">
      <text style="fill: #8190a6; font: 10.5px 'DejaVu Sans'; text-anchor: end" x="29.264" y="169.946513" transform="rotate(-0 29.264 169.946513)">80</text>
     </g>
    </g>
    <g id="ytick_6">
     <g id="line2d_11">
      <path d="M 33.264 124.970667
L 947.5488 124.970667
" clip-path="url(#p1ff24d9fdd)" style="fill: none; stroke: #e9edf4; stroke-width: 0.8; stroke-linecap: square"/>
     </g>
     <g id="line2d_12"/>
     <g id="text_6">
      <text style="fill: #8190a6; font: 10.5px 'DejaVu Sans'; text-anchor: end" x="29.264" y="128.959846" transform="rotate(-0 29.264 128.959846)">100</text>
     </g>
    </g>
   </g>
   <g id="patch_3">
    <path d="M 33.264 329.904
L 947.5488 329.904
" style="fill: none; stroke: #d7dfea; stroke-width: 0.8; stroke-linejoin: miter; stroke-linecap: square"/>
   </g>
   <g id="patch_4">
    <path d="M 40.46825 329.904
L 66.01059 329.904
L 66.01059 226.822533
L 40.46825 226.822533
z
" clip-path="url(#p1ff24d9fdd)" style="fill: #7652bb"/>
   </g>
   <g id="text_7">
    <text style="fill: #40516a; font: 11px 'DejaVu Sans'; text-anchor: middle" x="53.23942" y="220.43621" transform="rotate(-0 53.23942 220.43621)">50.3</text>
   </g>
   <g id="patch_5">
    <path d="M 69.940181 329.904
L 95.482521 329.904
L 95.482521 222.723867
L 69.940181 222.723867
z
" clip-path="url(#p1ff24d9fdd)" style="fill: #70a7b7"/>
   </g>
   <g id="text_8">
    <text style="fill: #40516a; font: 11px 'DejaVu Sans'; text-anchor: middle" x="82.711351" y="216.337544" transform="rotate(-0 82.711351 216.337544)">52.3</text>
   </g>
   <g id="patch_6">
    <path d="M 99.412112 329.904
L 124.954453 329.904
L 124.954453 222.518933
L 99.412112 222.518933
z
" clip-path="url(#p1ff24d9fdd)" style="fill: #d3a15b"/>
   </g>
   <g id="text_9">
    <text style="fill: #40516a; font: 11px 'DejaVu Sans'; text-anchor: middle" x="112.183283" y="216.13261" transform="rotate(-0 112.183283 216.13261)">52.4</text>
   </g>
   <g id="patch_7">
    <path d="M 128.884044 329.904
L 154.426384 329.904
L 154.426384 158.784667
L 128.884044 158.784667
z
" clip-path="url(#p1ff24d9fdd)" style="fill: #94a5b9"/>
   </g>
   <g id="text_10">
    <text style="fill: #40516a; font: 11px 'DejaVu Sans'; text-anchor: middle" x="141.655214" y="152.398344" transform="rotate(-0 141.655214 152.398344)">83.5</text>
   </g>
   <g id="patch_8">
    <path d="M 171.454611 329.904
L 196.996951 329.904
L 196.996951 144.894741
L 171.454611 144.894741
z
" clip-path="url(#p1ff24d9fdd)" style="fill: #7652bb"/>
   </g>
   <g id="text_11">
    <text style="fill: #40516a; font: 11px 'DejaVu Sans'; text-anchor: middle" x="184.225781" y="138.508418" transform="rotate(-0 184.225781 138.508418)">90.3</text>
   </g>
   <g id="patch_9">
    <path d="M 200.926542 329.904
L 226.468883 329.904
L 226.468883 144.894741
L 200.926542 144.894741
z
" clip-path="url(#p1ff24d9fdd)" style="fill: #70a7b7"/>
   </g>
   <g id="text_12">
    <text style="fill: #40516a; font: 11px 'DejaVu Sans'; text-anchor: middle" x="213.697712" y="138.508418" transform="rotate(-0 213.697712 138.508418)">90.3</text>
   </g>
   <g id="patch_10">
    <path d="M 230.398473 329.904
L 255.940814 329.904
L 255.940814 147.741037
L 230.398473 147.741037
z
" clip-path="url(#p1ff24d9fdd)" style="fill: #d3a15b"/>
   </g>
   <g id="text_13">
    <text style="fill: #40516a; font: 11px 'DejaVu Sans'; text-anchor: middle" x="243.169644" y="141.354714" transform="rotate(-0 243.169644 141.354714)">88.9</text>
   </g>
   <g id="patch_11">
    <path d="M 259.870405 329.904
L 285.412745 329.904
L 285.412745 132.086407
L 259.870405 132.086407
z
" clip-path="url(#p1ff24d9fdd)" style="fill: #94a5b9"/>
   </g>
   <g id="text_14">
    <text style="fill: #40516a; font: 11px 'DejaVu Sans'; text-anchor: middle" x="272.641575" y="125.700084" transform="rotate(-0 272.641575 125.700084)">96.5</text>
   </g>
   <g id="patch_12">
    <path d="M 302.440972 329.904
L 327.983312 329.904
L 327.983312 161.344115
L 302.440972 161.344115
z
" clip-path="url(#p1ff24d9fdd)" style="fill: #7652bb"/>
   </g>
   <g id="text_15">
    <text style="fill: #40516a; font: 11px 'DejaVu Sans'; text-anchor: middle" x="315.212142" y="154.957793" transform="rotate(-0 315.212142 154.957793)">82.3</text>
   </g>
   <g id="patch_13">
    <path d="M 331.912903 329.904
L 357.455244 329.904
L 357.455244 169.328531
L 331.912903 169.328531
z
" clip-path="url(#p1ff24d9fdd)" style="fill: #70a7b7"/>
   </g>
   <g id="text_16">
    <text style="fill: #40516a; font: 11px 'DejaVu Sans'; text-anchor: middle" x="344.684073" y="162.942208" transform="rotate(-0 344.684073 162.942208)">78.4</text>
   </g>
   <g id="patch_14">
    <path d="M 361.384834 329.904
L 386.927175 329.904
L 386.927175 174.651475
L 361.384834 174.651475
z
" clip-path="url(#p1ff24d9fdd)" style="fill: #d3a15b"/>
   </g>
   <g id="text_17">
    <text style="fill: #40516a; font: 11px 'DejaVu Sans'; text-anchor: middle" x="374.156005" y="168.265152" transform="rotate(-0 374.156005 168.265152)">75.8</text>
   </g>
   <g id="patch_15">
    <path d="M 390.856766 329.904
L 416.399106 329.904
L 416.399106 154.246857
L 390.856766 154.246857
z
" clip-path="url(#p1ff24d9fdd)" style="fill: #94a5b9"/>
   </g>
   <g id="text_18">
    <text style="fill: #40516a; font: 11px 'DejaVu Sans'; text-anchor: middle" x="403.627936" y="147.860534" transform="rotate(-0 403.627936 147.860534)">85.7</text>
   </g>
   <g id="patch_16">
    <path d="M 433.427333 329.904
L 458.969673 329.904
L 458.969673 172.624122
L 433.427333 172.624122
z
" clip-path="url(#p1ff24d9fdd)" style="fill: #7652bb"/>
   </g>
   <g id="text_19">
    <text style="fill: #40516a; font: 11px 'DejaVu Sans'; text-anchor: middle" x="446.198503" y="166.237799" transform="rotate(-0 446.198503 166.237799)">76.7</text>
   </g>
   <g id="patch_17">
    <path d="M 462.899264 329.904
L 488.441605 329.904
L 488.441605 187.882618
L 462.899264 187.882618
z
" clip-path="url(#p1ff24d9fdd)" style="fill: #70a7b7"/>
   </g>
   <g id="text_20">
    <text style="fill: #40516a; font: 11px 'DejaVu Sans'; text-anchor: middle" x="475.670434" y="181.496295" transform="rotate(-0 475.670434 181.496295)">69.3</text>
   </g>
   <g id="patch_18">
    <path d="M 492.371195 329.904
L 517.913536 329.904
L 517.913536 181.77922
L 492.371195 181.77922
z
" clip-path="url(#p1ff24d9fdd)" style="fill: #d3a15b"/>
   </g>
   <g id="text_21">
    <text style="fill: #40516a; font: 11px 'DejaVu Sans'; text-anchor: middle" x="505.142366" y="175.392897" transform="rotate(-0 505.142366 175.392897)">72.3</text>
   </g>
   <g id="patch_19">
    <path d="M 521.843127 329.904
L 547.385467 329.904
L 547.385467 175.675821
L 521.843127 175.675821
z
" clip-path="url(#p1ff24d9fdd)" style="fill: #94a5b9"/>
   </g>
   <g id="text_22">
    <text style="fill: #40516a; font: 11px 'DejaVu Sans'; text-anchor: middle" x="534.614297" y="169.289498" transform="rotate(-0 534.614297 169.289498)">75.3</text>
   </g>
   <g id="patch_20">
    <path d="M 564.413694 329.904
L 589.956034 329.904
L 589.956034 179.406083
L 564.413694 179.406083
z
" clip-path="url(#p1ff24d9fdd)" style="fill: #7652bb"/>
   </g>
   <g id="text_23">
    <text style="fill: #40516a; font: 11px 'DejaVu Sans'; text-anchor: middle" x="577.184864" y="173.01976" transform="rotate(-0 577.184864 173.01976)">73.4</text>
   </g>
   <g id="patch_21">
    <path d="M 593.885625 329.904
L 619.427966 329.904
L 619.427966 184.209208
L 593.885625 184.209208
z
" clip-path="url(#p1ff24d9fdd)" style="fill: #70a7b7"/>
   </g>
   <g id="text_24">
    <text style="fill: #40516a; font: 11px 'DejaVu Sans'; text-anchor: middle" x="606.656795" y="177.822885" transform="rotate(-0 606.656795 177.822885)">71.1</text>
   </g>
   <g id="patch_22">
    <path d="M 623.357556 329.904
L 648.899897 329.904
L 648.899897 189.012333
L 623.357556 189.012333
z
" clip-path="url(#p1ff24d9fdd)" style="fill: #d3a15b"/>
   </g>
   <g id="text_25">
    <text style="fill: #40516a; font: 11px 'DejaVu Sans'; text-anchor: middle" x="636.128727" y="182.62601" transform="rotate(-0 636.128727 182.62601)">68.8</text>
   </g>
   <g id="patch_23">
    <path d="M 652.829488 329.904
L 678.371828 329.904
L 678.371828 174.602958
L 652.829488 174.602958
z
" clip-path="url(#p1ff24d9fdd)" style="fill: #94a5b9"/>
   </g>
   <g id="text_26">
    <text style="fill: #40516a; font: 11px 'DejaVu Sans'; text-anchor: middle" x="665.600658" y="168.216635" transform="rotate(-0 665.600658 168.216635)">75.8</text>
   </g>
   <g id="patch_24">
    <path d="M 695.400055 329.904
L 720.942395 329.904
L 720.942395 304.45128
L 695.400055 304.45128
z
" clip-path="url(#p1ff24d9fdd)" style="fill: #7652bb"/>
   </g>
   <g id="text_27">
    <text style="fill: #40516a; font: 11px 'DejaVu Sans'; text-anchor: middle" x="708.171225" y="298.064957" transform="rotate(-0 708.171225 298.064957)">12.4</text>
   </g>
   <g id="patch_25">
    <path d="M 724.871986 329.904
L 750.414327 329.904
L 750.414327 306.705547
L 724.871986 306.705547
z
" clip-path="url(#p1ff24d9fdd)" style="fill: #70a7b7"/>
   </g>
   <g id="text_28">
    <text style="fill: #40516a; font: 11px 'DejaVu Sans'; text-anchor: middle" x="737.643156" y="300.319224" transform="rotate(-0 737.643156 300.319224)">11.3</text>
   </g>
   <g id="patch_26">
    <path d="M 754.343917 329.904
L 779.886258 329.904
L 779.886258 311.869867
L 754.343917 311.869867
z
" clip-path="url(#p1ff24d9fdd)" style="fill: #d3a15b"/>
   </g>
   <g id="text_29">
    <text style="fill: #40516a; font: 11px 'DejaVu Sans'; text-anchor: middle" x="767.115088" y="305.483544" transform="rotate(-0 767.115088 305.483544)">8.8</text>
   </g>
   <g id="patch_27">
    <path d="M 783.815849 329.904
L 809.358189 329.904
L 809.358189 294.61448
L 783.815849 294.61448
z
" clip-path="url(#p1ff24d9fdd)" style="fill: #94a5b9"/>
   </g>
   <g id="text_30">
    <text style="fill: #40516a; font: 11px 'DejaVu Sans'; text-anchor: middle" x="796.587019" y="288.228157" transform="rotate(-0 796.587019 288.228157)">17.2</text>
   </g>
   <g id="patch_28">
    <path d="M 826.386416 329.904
L 851.928756 329.904
L 851.928756 169.666627
L 826.386416 169.666627
z
" clip-path="url(#p1ff24d9fdd)" style="fill: #7652bb"/>
   </g>
   <g id="text_31">
    <text style="fill: #40516a; font: 11px 'DejaVu Sans'; text-anchor: middle" x="839.157586" y="163.280304" transform="rotate(-0 839.157586 163.280304)">78.2</text>
   </g>
   <g id="patch_29">
    <path d="M 855.858347 329.904
L 881.400688 329.904
L 881.400688 178.519747
L 855.858347 178.519747
z
" clip-path="url(#p1ff24d9fdd)" style="fill: #70a7b7"/>
   </g>
   <g id="text_32">
    <text style="fill: #40516a; font: 11px 'DejaVu Sans'; text-anchor: middle" x="868.629517" y="172.133424" transform="rotate(-0 868.629517 172.133424)">73.9</text>
   </g>
   <g id="patch_30">
    <path d="M 885.330279 329.904
L 910.872619 329.904
L 910.872619 196.12352
L 885.330279 196.12352
z
" clip-path="url(#p1ff24d9fdd)" style="fill: #d3a15b"/>
   </g>
   <g id="text_33">
    <text style="fill: #40516a; font: 11px 'DejaVu Sans'; text-anchor: middle" x="898.101449" y="189.737197" transform="rotate(-0 898.101449 189.737197)">65.3</text>
   </g>
   <g id="patch_31">
    <path d="M 914.80221 329.904
L 940.34455 329.904
L 940.34455 143.578613
L 914.80221 143.578613
z
" clip-path="url(#p1ff24d9fdd)" style="fill: #94a5b9"/>
   </g>
   <g id="text_34">
    <text style="fill: #40516a; font: 11px 'DejaVu Sans'; text-anchor: middle" x="927.57338" y="137.19229" transform="rotate(-0 927.57338 137.19229)">90.9</text>
   </g>
   <g id="text_35">
    <text style="fill: #35445e; font: 12px 'DejaVu Sans'; text-anchor: middle" x="97.447317" y="354.515085" transform="rotate(-0 97.447317 354.515085)">MMLU-Pro</text>
   </g>
   <g id="text_36">
    <text style="fill: #8190a6; font: 10.5px 'DejaVu Sans'; text-anchor: middle" x="97.447317" y="373.294839" transform="rotate(-0 97.447317 373.294839)">1,000 questions</text>
   </g>
   <g id="text_37">
    <text style="fill: #35445e; font: 12px 'DejaVu Sans'; text-anchor: middle" x="228.433678" y="354.515085" transform="rotate(-0 228.433678 354.515085)">SemIf</text>
   </g>
   <g id="text_38">
    <text style="fill: #8190a6; font: 10.5px 'DejaVu Sans'; text-anchor: middle" x="228.433678" y="373.294839" transform="rotate(-0 228.433678 373.294839)">144 handwritten</text>
   </g>
   <g id="text_39">
    <text style="fill: #35445e; font: 12px 'DejaVu Sans'; text-anchor: middle" x="359.420039" y="354.515085" transform="rotate(-0 359.420039 354.515085)">JevBench</text>
   </g>
   <g id="text_40">
    <text style="fill: #8190a6; font: 10.5px 'DejaVu Sans'; text-anchor: middle" x="359.420039" y="373.294839" transform="rotate(-0 359.420039 373.294839)">231 public</text>
   </g>
   <g id="text_41">
    <text style="fill: #35445e; font: 12px 'DejaVu Sans'; text-anchor: middle" x="490.4064" y="354.515085" transform="rotate(-0 490.4064 354.515085)">scienthoon</text>
   </g>
   <g id="text_42">
    <text style="fill: #8190a6; font: 10.5px 'DejaVu Sans'; text-anchor: middle" x="490.4064" y="373.294839" transform="rotate(-0 490.4064 373.294839)">873 questions</text>
   </g>
   <g id="text_43">
    <text style="fill: #35445e; font: 12px 'DejaVu Sans'; text-anchor: middle" x="621.392761" y="354.515085" transform="rotate(-0 621.392761 354.515085)">WANLI</text>
   </g>
   <g id="text_44">
    <text style="fill: #8190a6; font: 10.5px 'DejaVu Sans'; text-anchor: middle" x="621.392761" y="373.294839" transform="rotate(-0 621.392761 373.294839)">256 questions</text>
   </g>
   <g id="text_45">
    <text style="fill: #35445e; font: 12px 'DejaVu Sans'; text-anchor: middle" x="752.379122" y="354.515085" transform="rotate(-0 752.379122 354.515085)">ChessBench</text>
   </g>
   <g id="text_46">
    <text style="fill: #8190a6; font: 10.5px 'DejaVu Sans'; text-anchor: middle" x="752.379122" y="373.294839" transform="rotate(-0 752.379122 373.294839)">5,000 positions</text>
   </g>
   <g id="text_47">
    <text style="fill: #35445e; font: 12px 'DejaVu Sans'; text-anchor: middle" x="883.365483" y="354.515085" transform="rotate(-0 883.365483 354.515085)">BPoMP</text>
   </g>
   <g id="text_48">
    <text style="fill: #8190a6; font: 10.5px 'DejaVu Sans'; text-anchor: middle" x="883.365483" y="373.294839" transform="rotate(-0 883.365483 373.294839)">variant mean</text>
   </g>
   <g id="legend_1">
    <g id="patch_32">
     <path d="M 37.214006 90.301159
L 55.614006 90.301159
L 55.614006 82.251159
L 37.214006 82.251159
z
" style="fill: #7652bb"/>
    </g>
    <g id="text_49">
     <text style="fill: #46546b; font: 11.5px 'DejaVu Sans'; text-anchor: start" x="64.814006" y="90.301159" transform="rotate(-0 64.814006 90.301159)">Qev-4B</text>
    </g>
    <g id="patch_33">
     <path d="M 122.903381 90.301159
L 141.303381 90.301159
L 141.303381 82.251159
L 122.903381 82.251159
z
" style="fill: #70a7b7"/>
    </g>
    <g id="text_50">
     <text style="fill: #46546b; font: 11.5px 'DejaVu Sans'; text-anchor: start" x="150.503381" y="90.301159" transform="rotate(-0 150.503381 90.301159)">JevAny-4B · Pointer</text>
    </g>
    <g id="patch_34">
     <path d="M 276.307991 90.301159
L 294.707991 90.301159
L 294.707991 82.251159
L 276.307991 82.251159
z
" style="fill: #d3a15b"/>
    </g>
    <g id="text_51">
     <text style="fill: #46546b; font: 11.5px 'DejaVu Sans'; text-anchor: start" x="303.907991" y="90.301159" transform="rotate(-0 303.907991 90.301159)">Kev-4B</text>
    </g>
    <g id="patch_35">
     <path d="M 359.911194 90.301159
L 378.311194 90.301159
L 378.311194 82.251159
L 359.911194 82.251159
z
" style="fill: #94a5b9"/>
    </g>
    <g id="text_52">
     <text style="fill: #46546b; font: 11.5px 'DejaVu Sans'; text-anchor: start" x="387.511194" y="90.301159" transform="rotate(-0 387.511194 90.301159)">Jev · reference</text>
    </g>
   </g>
  </g>
  <g id="text_53">
   <text style="fill: #35445e; font: 600 19px 'DejaVu Sans'; text-anchor: start" x="13.3056" y="20.4624" transform="rotate(-0 13.3056 20.4624)">Qev · 4B model comparison</text>
  </g>
  <g id="text_54">
   <text style="fill: #7c89a0; font: 11.5px 'DejaVu Sans'; text-anchor: start" x="13.3056" y="48.024" transform="rotate(-0 13.3056 48.024)">Scores (%) · Qev, JevAny and Kev, with Jev as a hosted reference</text>
  </g>
  <g id="text_55">
   <text style="fill: #8190a6; font: 10px 'DejaVu Sans'; text-anchor: start" x="13.3056" y="402.984" transform="rotate(-0 13.3056 402.984)">Qev: BF16 backbone. Kev / JevAny: FP32. ChessBench / BPoMP: Decision Index raw scores.</text>
  </g>
 </g>
 <defs>
  <clipPath id="p1ff24d9fdd">
   <rect x="33.264" y="108.576" width="914.2848" height="221.328"/>
  </clipPath>
 </defs>
</svg>
