<?xml version="1.0" encoding="utf-8" standalone="no"?>
<!DOCTYPE svg PUBLIC "-//W3C//DTD SVG 1.1//EN"
  "http://www.w3.org/Graphics/SVG/1.1/DTD/svg11.dtd">
<svg xmlns:xlink="http://www.w3.org/1999/xlink" width="979.2pt" height="403.2pt" viewBox="0 0 979.2 403.2" xmlns="http://www.w3.org/2000/svg" version="1.1">
 <metadata>
  <rdf:RDF xmlns:dc="http://purl.org/dc/elements/1.1/" xmlns:cc="http://creativecommons.org/ns#" xmlns:rdf="http://www.w3.org/1999/02/22-rdf-syntax-ns#">
   <cc:Work>
    <dc:type rdf:resource="http://purl.org/dc/dcmitype/StillImage"/>
    <dc:format>image/svg+xml</dc:format>
    <dc:creator>
     <cc:Agent>
      <dc:title>Matplotlib v3.9.2, https://matplotlib.org/</dc:title>
     </cc:Agent>
    </dc:creator>
   </cc:Work>
  </rdf:RDF>
 </metadata>
 <defs>
  <style type="text/css">*{stroke-linejoin: round; stroke-linecap: butt}</style>
 </defs>
 <g id="figure_1">
  <g id="patch_1">
   <path d="M 0 403.2
L 979.2 403.2
L 979.2 0
L 0 0
z
" style="fill: #ffffff"/>
  </g>
  <g id="axes_1">
   <g id="patch_2">
    <path d="M 63.648 318.528
L 971.3664 318.528
L 971.3664 104.832
L 63.648 104.832
z
" style="fill: #ffffff"/>
   </g>
   <g id="matplotlib.axis_1"/>
   <g id="matplotlib.axis_2">
    <g id="ytick_1">
     <g id="line2d_1">
      <path d="M 63.648 318.528
L 971.3664 318.528
" clip-path="url(#p4054c7b7b5)" style="fill: none; stroke: #e9edf4; stroke-width: 0.8; stroke-linecap: square"/>
     </g>
     <g id="line2d_2"/>
     <g id="text_1">
      <text style="fill: #8190a6; font: 9px 'DejaVu Sans'; text-anchor: end" x="55.648" y="321.947297" transform="rotate(-0 55.648 321.947297)">0</text>
     </g>
    </g>
    <g id="ytick_2">
     <g id="line2d_3">
      <path d="M 63.648 278.954667
L 971.3664 278.954667
" clip-path="url(#p4054c7b7b5)" style="fill: none; stroke: #e9edf4; stroke-width: 0.8; stroke-linecap: square"/>
     </g>
     <g id="line2d_4"/>
     <g id="text_2">
      <text style="fill: #8190a6; font: 9px 'DejaVu Sans'; text-anchor: end" x="55.648" y="282.373964" transform="rotate(-0 55.648 282.373964)">20</text>
     </g>
    </g>
    <g id="ytick_3">
     <g id="line2d_5">
      <path d="M 63.648 239.381333
L 971.3664 239.381333
" clip-path="url(#p4054c7b7b5)" style="fill: none; stroke: #e9edf4; stroke-width: 0.8; stroke-linecap: square"/>
     </g>
     <g id="line2d_6"/>
     <g id="text_3">
      <text style="fill: #8190a6; font: 9px 'DejaVu Sans'; text-anchor: end" x="55.648" y="242.80063" transform="rotate(-0 55.648 242.80063)">40</text>
     </g>
    </g>
    <g id="ytick_4">
     <g id="line2d_7">
      <path d="M 63.648 199.808
L 971.3664 199.808
" clip-path="url(#p4054c7b7b5)" style="fill: none; stroke: #e9edf4; stroke-width: 0.8; stroke-linecap: square"/>
     </g>
     <g id="line2d_8"/>
     <g id="text_4">
      <text style="fill: #8190a6; font: 9px 'DejaVu Sans'; text-anchor: end" x="55.648" y="203.227297" transform="rotate(-0 55.648 203.227297)">60</text>
     </g>
    </g>
    <g id="ytick_5">
     <g id="line2d_9">
      <path d="M 63.648 160.234667
L 971.3664 160.234667
" clip-path="url(#p4054c7b7b5)" style="fill: none; stroke: #e9edf4; stroke-width: 0.8; stroke-linecap: square"/>
     </g>
     <g id="line2d_10"/>
     <g id="text_5">
      <text style="fill: #8190a6; font: 9px 'DejaVu Sans'; text-anchor: end" x="55.648" y="163.653964" transform="rotate(-0 55.648 163.653964)">80</text>
     </g>
    </g>
    <g id="ytick_6">
     <g id="line2d_11">
      <path d="M 63.648 120.661333
L 971.3664 120.661333
" clip-path="url(#p4054c7b7b5)" style="fill: none; stroke: #e9edf4; stroke-width: 0.8; stroke-linecap: square"/>
     </g>
     <g id="line2d_12"/>
     <g id="text_6">
      <text style="fill: #8190a6; font: 9px 'DejaVu Sans'; text-anchor: end" x="55.648" y="124.08063" transform="rotate(-0 55.648 124.08063)">100</text>
     </g>
    </g>
    <g id="text_7">
     <text style="fill: #7c89a0; font: 10px 'DejaVu Sans'; text-anchor: middle" x="32.389562" y="211.68" transform="rotate(-90 32.389562 211.68)">Accuracy (%)</text>
    </g>
   </g>
   <g id="patch_3">
    <path d="M 63.648 318.528
L 971.3664 318.528
" style="fill: none; stroke: #d7dfea; stroke-width: 0.8; stroke-linejoin: miter; stroke-linecap: square"/>
   </g>
   <g id="patch_4">
    <path d="M 82.030565 318.528
L 106.751946 318.528
L 106.751946 149.621249
L 82.030565 149.621249
z
" clip-path="url(#p4054c7b7b5)" style="fill: #ae7ed6"/>
   </g>
   <g id="text_8">
    <text style="fill: #40516a; font: 8.8px 'DejaVu Sans'; text-anchor: middle" x="94.391256" y="143.833791" transform="rotate(-0 94.391256 143.833791)">85.36</text>
   </g>
   <g id="patch_5">
    <path d="M 110.555236 318.528
L 135.276617 318.528
L 135.276617 146.490447
L 110.555236 146.490447
z
" clip-path="url(#p4054c7b7b5)" style="fill: #9468c4"/>
   </g>
   <g id="text_9">
    <text style="fill: #40516a; font: 8.8px 'DejaVu Sans'; text-anchor: middle" x="122.915926" y="140.702989" transform="rotate(-0 122.915926 140.702989)">86.95</text>
   </g>
   <g id="patch_6">
    <path d="M 139.079906 318.528
L 163.801287 318.528
L 163.801287 145.551207
L 139.079906 145.551207
z
" clip-path="url(#p4054c7b7b5)" style="fill: #7652bb"/>
   </g>
   <g id="text_10">
    <text style="fill: #40516a; font: 8.8px 'DejaVu Sans'; text-anchor: middle" x="151.440597" y="139.763748" transform="rotate(-0 151.440597 139.763748)">87.42</text>
   </g>
   <g id="patch_7">
    <path d="M 167.604577 318.528
L 192.325958 318.528
L 192.325958 164.805637
L 167.604577 164.805637
z
" clip-path="url(#p4054c7b7b5)" style="fill: #94a5b9"/>
   </g>
   <g id="text_11">
    <text style="fill: #40516a; font: 8.8px 'DejaVu Sans'; text-anchor: middle" x="179.965267" y="159.018179" transform="rotate(-0 179.965267 159.018179)">77.69</text>
   </g>
   <g id="patch_8">
    <path d="M 208.806878 318.528
L 233.528259 318.528
L 233.528259 165.60361
L 208.806878 165.60361
z
" clip-path="url(#p4054c7b7b5)" style="fill: #ae7ed6"/>
   </g>
   <g id="text_12">
    <text style="fill: #40516a; font: 8.8px 'DejaVu Sans'; text-anchor: middle" x="221.167569" y="159.816151" transform="rotate(-0 221.167569 159.816151)">77.29</text>
   </g>
   <g id="patch_9">
    <path d="M 237.331549 318.528
L 262.05293 318.528
L 262.05293 156.253203
L 237.331549 156.253203
z
" clip-path="url(#p4054c7b7b5)" style="fill: #9468c4"/>
   </g>
   <g id="text_13">
    <text style="fill: #40516a; font: 8.8px 'DejaVu Sans'; text-anchor: middle" x="249.692239" y="150.465745" transform="rotate(-0 249.692239 150.465745)">82.01</text>
   </g>
   <g id="patch_10">
    <path d="M 265.856219 318.528
L 290.5776 318.528
L 290.5776 152.332065
L 265.856219 152.332065
z
" clip-path="url(#p4054c7b7b5)" style="fill: #7652bb"/>
   </g>
   <g id="text_14">
    <text style="fill: #40516a; font: 8.8px 'DejaVu Sans'; text-anchor: middle" x="278.216909" y="146.544607" transform="rotate(-0 278.216909 146.544607)">83.99</text>
   </g>
   <g id="patch_11">
    <path d="M 294.380889 318.528
L 319.10227 318.528
L 319.10227 171.334504
L 294.380889 171.334504
z
" clip-path="url(#p4054c7b7b5)" style="fill: #94a5b9"/>
   </g>
   <g id="text_15">
    <text style="fill: #40516a; font: 8.8px 'DejaVu Sans'; text-anchor: middle" x="306.74158" y="165.547046" transform="rotate(-0 306.74158 165.547046)">74.39</text>
   </g>
   <g id="patch_12">
    <path d="M 335.583191 318.528
L 360.304572 318.528
L 360.304572 241.9536
L 335.583191 241.9536
z
" clip-path="url(#p4054c7b7b5)" style="fill: #ae7ed6"/>
   </g>
   <g id="text_16">
    <text style="fill: #40516a; font: 8.8px 'DejaVu Sans'; text-anchor: middle" x="347.943882" y="236.166142" transform="rotate(-0 347.943882 236.166142)">38.70</text>
   </g>
   <g id="patch_13">
    <path d="M 364.107861 318.528
L 388.829242 318.528
L 388.829242 219.001067
L 364.107861 219.001067
z
" clip-path="url(#p4054c7b7b5)" style="fill: #9468c4"/>
   </g>
   <g id="text_17">
    <text style="fill: #40516a; font: 8.8px 'DejaVu Sans'; text-anchor: middle" x="376.468552" y="213.213608" transform="rotate(-0 376.468552 213.213608)">50.30</text>
   </g>
   <g id="patch_14">
    <path d="M 392.632532 318.528
L 417.353913 318.528
L 417.353913 204.952533
L 392.632532 204.952533
z
" clip-path="url(#p4054c7b7b5)" style="fill: #7652bb"/>
   </g>
   <g id="text_18">
    <text style="fill: #40516a; font: 8.8px 'DejaVu Sans'; text-anchor: middle" x="404.993222" y="199.165075" transform="rotate(-0 404.993222 199.165075)">57.40</text>
   </g>
   <g id="patch_15">
    <path d="M 421.157202 318.528
L 445.878583 318.528
L 445.878583 218.8032
L 421.157202 218.8032
z
" clip-path="url(#p4054c7b7b5)" style="fill: #94a5b9"/>
   </g>
   <g id="text_19">
    <text style="fill: #40516a; font: 8.8px 'DejaVu Sans'; text-anchor: middle" x="433.517893" y="213.015742" transform="rotate(-0 433.517893 213.015742)">50.40</text>
   </g>
   <g id="patch_16">
    <path d="M 462.359504 318.528
L 487.080885 318.528
L 487.080885 155.013185
L 462.359504 155.013185
z
" clip-path="url(#p4054c7b7b5)" style="fill: #ae7ed6"/>
   </g>
   <g id="text_20">
    <text style="fill: #40516a; font: 8.8px 'DejaVu Sans'; text-anchor: middle" x="474.720194" y="149.225727" transform="rotate(-0 474.720194 149.225727)">82.64</text>
   </g>
   <g id="patch_17">
    <path d="M 490.884174 318.528
L 515.605555 318.528
L 515.605555 139.89837
L 490.884174 139.89837
z
" clip-path="url(#p4054c7b7b5)" style="fill: #9468c4"/>
   </g>
   <g id="text_21">
    <text style="fill: #40516a; font: 8.8px 'DejaVu Sans'; text-anchor: middle" x="503.244865" y="134.110912" transform="rotate(-0 503.244865 134.110912)">90.28</text>
   </g>
   <g id="patch_18">
    <path d="M 519.408845 318.528
L 544.130226 318.528
L 544.130226 134.402074
L 519.408845 134.402074
z
" clip-path="url(#p4054c7b7b5)" style="fill: #7652bb"/>
   </g>
   <g id="text_22">
    <text style="fill: #40516a; font: 8.8px 'DejaVu Sans'; text-anchor: middle" x="531.769535" y="128.614616" transform="rotate(-0 531.769535 128.614616)">93.06</text>
   </g>
   <g id="patch_19">
    <path d="M 547.933515 318.528
L 572.654896 318.528
L 572.654896 139.89837
L 547.933515 139.89837
z
" clip-path="url(#p4054c7b7b5)" style="fill: #94a5b9"/>
   </g>
   <g id="text_23">
    <text style="fill: #40516a; font: 8.8px 'DejaVu Sans'; text-anchor: middle" x="560.294206" y="134.110912" transform="rotate(-0 560.294206 134.110912)">90.28</text>
   </g>
   <g id="patch_20">
    <path d="M 589.135817 318.528
L 613.857198 318.528
L 613.857198 176.190925
L 589.135817 176.190925
z
" clip-path="url(#p4054c7b7b5)" style="fill: #ae7ed6"/>
   </g>
   <g id="text_24">
    <text style="fill: #40516a; font: 8.8px 'DejaVu Sans'; text-anchor: middle" x="601.496507" y="170.403466" transform="rotate(-0 601.496507 170.403466)">71.94</text>
   </g>
   <g id="patch_21">
    <path d="M 617.660487 318.528
L 642.381868 318.528
L 642.381868 166.671566
L 617.660487 166.671566
z
" clip-path="url(#p4054c7b7b5)" style="fill: #9468c4"/>
   </g>
   <g id="text_25">
    <text style="fill: #40516a; font: 8.8px 'DejaVu Sans'; text-anchor: middle" x="630.021178" y="160.884108" transform="rotate(-0 630.021178 160.884108)">76.75</text>
   </g>
   <g id="patch_22">
    <path d="M 646.185158 318.528
L 670.906539 318.528
L 670.906539 178.004136
L 646.185158 178.004136
z
" clip-path="url(#p4054c7b7b5)" style="fill: #7652bb"/>
   </g>
   <g id="text_26">
    <text style="fill: #40516a; font: 8.8px 'DejaVu Sans'; text-anchor: middle" x="658.545848" y="172.216678" transform="rotate(-0 658.545848 172.216678)">71.02</text>
   </g>
   <g id="patch_23">
    <path d="M 674.709828 318.528
L 699.431209 318.528
L 699.431209 182.310512
L 674.709828 182.310512
z
" clip-path="url(#p4054c7b7b5)" style="fill: #94a5b9"/>
   </g>
   <g id="text_27">
    <text style="fill: #40516a; font: 8.8px 'DejaVu Sans'; text-anchor: middle" x="687.070518" y="176.523054" transform="rotate(-0 687.070518 176.523054)">68.84</text>
   </g>
   <g id="patch_24">
    <path d="M 715.91213 318.528
L 740.633511 318.528
L 740.633511 184.813417
L 715.91213 184.813417
z
" clip-path="url(#p4054c7b7b5)" style="fill: #ae7ed6"/>
   </g>
   <g id="text_28">
    <text style="fill: #40516a; font: 8.8px 'DejaVu Sans'; text-anchor: middle" x="728.27282" y="179.025958" transform="rotate(-0 728.27282 179.025958)">67.58</text>
   </g>
   <g id="patch_25">
    <path d="M 744.4368 318.528
L 769.158181 318.528
L 769.158181 173.219667
L 744.4368 173.219667
z
" clip-path="url(#p4054c7b7b5)" style="fill: #9468c4"/>
   </g>
   <g id="text_29">
    <text style="fill: #40516a; font: 8.8px 'DejaVu Sans'; text-anchor: middle" x="756.797491" y="167.432208" transform="rotate(-0 756.797491 167.432208)">73.44</text>
   </g>
   <g id="patch_26">
    <path d="M 772.96147 318.528
L 797.682851 318.528
L 797.682851 177.857167
L 772.96147 177.857167
z
" clip-path="url(#p4054c7b7b5)" style="fill: #7652bb"/>
   </g>
   <g id="text_30">
    <text style="fill: #40516a; font: 8.8px 'DejaVu Sans'; text-anchor: middle" x="785.322161" y="172.069708" transform="rotate(-0 785.322161 172.069708)">71.09</text>
   </g>
   <g id="patch_27">
    <path d="M 801.486141 318.528
L 826.207522 318.528
L 826.207522 184.0405
L 801.486141 184.0405
z
" clip-path="url(#p4054c7b7b5)" style="fill: #94a5b9"/>
   </g>
   <g id="text_31">
    <text style="fill: #40516a; font: 8.8px 'DejaVu Sans'; text-anchor: middle" x="813.846831" y="178.253042" transform="rotate(-0 813.846831 178.253042)">67.97</text>
   </g>
   <g id="patch_28">
    <path d="M 842.688442 318.528
L 867.409823 318.528
L 867.409823 171.198707
L 842.688442 171.198707
z
" clip-path="url(#p4054c7b7b5)" style="fill: #ae7ed6"/>
   </g>
   <g id="text_32">
    <text style="fill: #40516a; font: 8.8px 'DejaVu Sans'; text-anchor: middle" x="855.049133" y="165.411249" transform="rotate(-0 855.049133 165.411249)">74.46</text>
   </g>
   <g id="patch_29">
    <path d="M 871.213113 318.528
L 895.934494 318.528
L 895.934494 155.780525
L 871.213113 155.780525
z
" clip-path="url(#p4054c7b7b5)" style="fill: #9468c4"/>
   </g>
   <g id="text_33">
    <text style="fill: #40516a; font: 8.8px 'DejaVu Sans'; text-anchor: middle" x="883.573803" y="149.993067" transform="rotate(-0 883.573803 149.993067)">82.25</text>
   </g>
   <g id="patch_30">
    <path d="M 899.737783 318.528
L 924.459164 318.528
L 924.459164 154.067394
L 899.737783 154.067394
z
" clip-path="url(#p4054c7b7b5)" style="fill: #7652bb"/>
   </g>
   <g id="text_34">
    <text style="fill: #40516a; font: 8.8px 'DejaVu Sans'; text-anchor: middle" x="912.098474" y="148.279936" transform="rotate(-0 912.098474 148.279936)">83.12</text>
   </g>
   <g id="patch_31">
    <path d="M 928.262454 318.528
L 952.983835 318.528
L 952.983835 168.62901
L 928.262454 168.62901
z
" clip-path="url(#p4054c7b7b5)" style="fill: #94a5b9"/>
   </g>
   <g id="text_35">
    <text style="fill: #40516a; font: 8.8px 'DejaVu Sans'; text-anchor: middle" x="940.623144" y="162.841552" transform="rotate(-0 940.623144 162.841552)">75.76</text>
   </g>
   <g id="text_36">
    <text style="fill: #35445e; font: 10.5px 'DejaVu Sans'; text-anchor: middle" x="137.178261" y="341.465079" transform="rotate(-0 137.178261 341.465079)">Decision dev</text>
   </g>
   <g id="text_37">
    <text style="fill: #8190a6; font: 9px 'DejaVu Sans'; text-anchor: middle" x="137.178261" y="359.557954" transform="rotate(-0 137.178261 359.557954)">1,264 clean</text>
   </g>
   <g id="text_38">
    <text style="fill: #35445e; font: 10.5px 'DejaVu Sans'; text-anchor: middle" x="263.954574" y="341.465079" transform="rotate(-0 263.954574 341.465079)">Transfer dev</text>
   </g>
   <g id="text_39">
    <text style="fill: #8190a6; font: 9px 'DejaVu Sans'; text-anchor: middle" x="263.954574" y="359.557954" transform="rotate(-0 263.954574 359.557954)">656 clean</text>
   </g>
   <g id="text_40">
    <text style="fill: #35445e; font: 10.5px 'DejaVu Sans'; text-anchor: middle" x="390.730887" y="341.465079" transform="rotate(-0 390.730887 341.465079)">MMLU-Pro</text>
   </g>
   <g id="text_41">
    <text style="fill: #8190a6; font: 9px 'DejaVu Sans'; text-anchor: middle" x="390.730887" y="359.557954" transform="rotate(-0 390.730887 359.557954)">1,000 questions</text>
   </g>
   <g id="text_42">
    <text style="fill: #35445e; font: 10.5px 'DejaVu Sans'; text-anchor: middle" x="517.5072" y="341.465079" transform="rotate(-0 517.5072 341.465079)">SemIf</text>
   </g>
   <g id="text_43">
    <text style="fill: #8190a6; font: 9px 'DejaVu Sans'; text-anchor: middle" x="517.5072" y="359.557954" transform="rotate(-0 517.5072 359.557954)">144 handwritten</text>
   </g>
   <g id="text_44">
    <text style="fill: #35445e; font: 10.5px 'DejaVu Sans'; text-anchor: middle" x="644.283513" y="341.465079" transform="rotate(-0 644.283513 341.465079)">scienthoon</text>
   </g>
   <g id="text_45">
    <text style="fill: #8190a6; font: 9px 'DejaVu Sans'; text-anchor: middle" x="644.283513" y="359.557954" transform="rotate(-0 644.283513 359.557954)">873 questions</text>
   </g>
   <g id="text_46">
    <text style="fill: #35445e; font: 10.5px 'DejaVu Sans'; text-anchor: middle" x="771.059826" y="341.465079" transform="rotate(-0 771.059826 341.465079)">WANLI</text>
   </g>
   <g id="text_47">
    <text style="fill: #8190a6; font: 9px 'DejaVu Sans'; text-anchor: middle" x="771.059826" y="359.557954" transform="rotate(-0 771.059826 359.557954)">256 questions</text>
   </g>
   <g id="text_48">
    <text style="fill: #35445e; font: 10.5px 'DejaVu Sans'; text-anchor: middle" x="897.836139" y="341.465079" transform="rotate(-0 897.836139 341.465079)">JevBench</text>
   </g>
   <g id="text_49">
    <text style="fill: #8190a6; font: 9px 'DejaVu Sans'; text-anchor: middle" x="897.836139" y="359.557954" transform="rotate(-0 897.836139 359.557954)">231 public</text>
   </g>
   <g id="legend_1">
    <g id="patch_32">
     <path d="M 66.293971 88.409913
L 86.293971 88.409913
L 86.293971 81.409913
L 66.293971 81.409913
z
" style="fill: #ae7ed6"/>
    </g>
    <g id="text_50">
     <text style="fill: #46546b; font: 10px 'DejaVu Sans'; text-anchor: start" x="94.293971" y="88.409913" transform="rotate(-0 94.293971 88.409913)">Qev-2B</text>
    </g>
    <g id="patch_33">
     <path d="M 150.806471 88.409913
L 170.806471 88.409913
L 170.806471 81.409913
L 150.806471 81.409913
z
" style="fill: #9468c4"/>
    </g>
    <g id="text_51">
     <text style="fill: #46546b; font: 10px 'DejaVu Sans'; text-anchor: start" x="178.806471" y="88.409913" transform="rotate(-0 178.806471 88.409913)">Qev-4B</text>
    </g>
    <g id="patch_34">
     <path d="M 235.318971 88.409913
L 255.318971 88.409913
L 255.318971 81.409913
L 235.318971 81.409913
z
" style="fill: #7652bb"/>
    </g>
    <g id="text_52">
     <text style="fill: #46546b; font: 10px 'DejaVu Sans'; text-anchor: start" x="263.318971" y="88.409913" transform="rotate(-0 263.318971 88.409913)">Qev-9B</text>
    </g>
    <g id="patch_35">
     <path d="M 319.831471 88.409913
L 339.831471 88.409913
L 339.831471 81.409913
L 319.831471 81.409913
z
" style="fill: #94a5b9"/>
    </g>
    <g id="text_53">
     <text style="fill: #46546b; font: 10px 'DejaVu Sans'; text-anchor: start" x="347.831471" y="88.409913" transform="rotate(-0 347.831471 88.409913)">Qwen3.5-9B-Base</text>
    </g>
   </g>
  </g>
  <g id="text_54">
   <text style="fill: #35445e; font: 600 18px 'DejaVu Sans'; text-anchor: start" x="63.648" y="19.7568" transform="rotate(-0 63.648 19.7568)">Qev · 2B, 4B and 9B</text>
  </g>
  <g id="text_55">
   <text style="fill: #7c89a0; font: 11px 'DejaVu Sans'; text-anchor: start" x="63.648" y="46.368" transform="rotate(-0 63.648 46.368)">Decision accuracy on the same seven benchmark subsets</text>
  </g>
  <g id="text_56">
   <text style="fill: #8190a6; font: 9px 'DejaVu Sans'; text-anchor: start" x="63.648" y="389.088" transform="rotate(-0 63.648 389.088)">All four models use BF16 backbone computation. Qev retains an FP32 decision head.</text>
  </g>
 </g>
 <defs>
  <clipPath id="p4054c7b7b5">
   <rect x="63.648" y="104.832" width="907.7184" height="213.696"/>
  </clipPath>
 </defs>
</svg>
