<?xml version="1.0" encoding="utf-8" standalone="no"?>
<!DOCTYPE svg PUBLIC "-//W3C//DTD SVG 1.1//EN"
  "http://www.w3.org/Graphics/SVG/1.1/DTD/svg11.dtd">
<svg xmlns:xlink="http://www.w3.org/1999/xlink" width="864pt" height="374.4pt" viewBox="0 0 864 374.4" xmlns="http://www.w3.org/2000/svg" version="1.1">
 <metadata>
  <rdf:RDF xmlns:dc="http://purl.org/dc/elements/1.1/" xmlns:cc="http://creativecommons.org/ns#" xmlns:rdf="http://www.w3.org/1999/02/22-rdf-syntax-ns#">
   <cc:Work>
    <dc:type rdf:resource="http://purl.org/dc/dcmitype/StillImage"/>
    <dc:format>image/svg+xml</dc:format>
    <dc:creator>
     <cc:Agent>
      <dc:title>Matplotlib v3.9.2, https://matplotlib.org/</dc:title>
     </cc:Agent>
    </dc:creator>
   </cc:Work>
  </rdf:RDF>
 </metadata>
 <defs>
  <style type="text/css">*{stroke-linejoin: round; stroke-linecap: butt}</style>
 </defs>
 <g id="figure_1">
  <g id="patch_1">
   <path d="M 0 374.4
L 864 374.4
L 864 0
L 0 0
z
" style="fill: #ffffff"/>
  </g>
  <g id="axes_1">
   <g id="patch_2">
    <path d="M 63.072 286.416
L 857.952 286.416
L 857.952 78.624
L 63.072 78.624
z
" style="fill: #ffffff"/>
   </g>
   <g id="matplotlib.axis_1"/>
   <g id="matplotlib.axis_2">
    <g id="ytick_1">
     <g id="line2d_1">
      <path d="M 63.072 286.416
L 857.952 286.416
" clip-path="url(#p9bf6810326)" style="fill: none; stroke: #e9edf4; stroke-width: 0.8; stroke-linecap: square"/>
     </g>
     <g id="line2d_2"/>
     <g id="text_1">
      <text style="fill: #8190a6; font: 10px 'DejaVu Sans'; text-anchor: end" x="55.072" y="290.215219" transform="rotate(-0 55.072 290.215219)">0</text>
     </g>
    </g>
    <g id="ytick_2">
     <g id="line2d_3">
      <path d="M 63.072 246.836571
L 857.952 246.836571
" clip-path="url(#p9bf6810326)" style="fill: none; stroke: #e9edf4; stroke-width: 0.8; stroke-linecap: square"/>
     </g>
     <g id="line2d_4"/>
     <g id="text_2">
      <text style="fill: #8190a6; font: 10px 'DejaVu Sans'; text-anchor: end" x="55.072" y="250.63579" transform="rotate(-0 55.072 250.63579)">20</text>
     </g>
    </g>
    <g id="ytick_3">
     <g id="line2d_5">
      <path d="M 63.072 207.257143
L 857.952 207.257143
" clip-path="url(#p9bf6810326)" style="fill: none; stroke: #e9edf4; stroke-width: 0.8; stroke-linecap: square"/>
     </g>
     <g id="line2d_6"/>
     <g id="text_3">
      <text style="fill: #8190a6; font: 10px 'DejaVu Sans'; text-anchor: end" x="55.072" y="211.056362" transform="rotate(-0 55.072 211.056362)">40</text>
     </g>
    </g>
    <g id="ytick_4">
     <g id="line2d_7">
      <path d="M 63.072 167.677714
L 857.952 167.677714
" clip-path="url(#p9bf6810326)" style="fill: none; stroke: #e9edf4; stroke-width: 0.8; stroke-linecap: square"/>
     </g>
     <g id="line2d_8"/>
     <g id="text_4">
      <text style="fill: #8190a6; font: 10px 'DejaVu Sans'; text-anchor: end" x="55.072" y="171.476933" transform="rotate(-0 55.072 171.476933)">60</text>
     </g>
    </g>
    <g id="ytick_5">
     <g id="line2d_9">
      <path d="M 63.072 128.098286
L 857.952 128.098286
" clip-path="url(#p9bf6810326)" style="fill: none; stroke: #e9edf4; stroke-width: 0.8; stroke-linecap: square"/>
     </g>
     <g id="line2d_10"/>
     <g id="text_5">
      <text style="fill: #8190a6; font: 10px 'DejaVu Sans'; text-anchor: end" x="55.072" y="131.897504" transform="rotate(-0 55.072 131.897504)">80</text>
     </g>
    </g>
    <g id="ytick_6">
     <g id="line2d_11">
      <path d="M 63.072 88.518857
L 857.952 88.518857
" clip-path="url(#p9bf6810326)" style="fill: none; stroke: #e9edf4; stroke-width: 0.8; stroke-linecap: square"/>
     </g>
     <g id="line2d_12"/>
     <g id="text_6">
      <text style="fill: #8190a6; font: 10px 'DejaVu Sans'; text-anchor: end" x="55.072" y="92.318076" transform="rotate(-0 55.072 92.318076)">100</text>
     </g>
    </g>
    <g id="text_7">
     <text style="fill: #7c89a0; font: 11px 'DejaVu Sans'; text-anchor: middle" x="21.696844" y="182.52" transform="rotate(-90 21.696844 182.52)">Accuracy (%)</text>
    </g>
   </g>
   <g id="patch_3">
    <path d="M 63.072 286.416
L 857.952 286.416
" style="fill: none; stroke: #d7dfea; stroke-width: 0.8; stroke-linejoin: miter; stroke-linecap: square"/>
   </g>
   <g id="patch_4">
    <path d="M 99.522 286.416
L 133.542 286.416
L 133.542 113.412564
L 99.522 113.412564
z
" clip-path="url(#p9bf6810326)" style="fill: #7652bb"/>
   </g>
   <g id="text_8">
    <text style="fill: #40516a; font: 700 11.3px 'DejaVu Sans'; text-anchor: middle" x="116.532" y="106.906677" transform="rotate(-0 116.532 106.906677)">87.42</text>
   </g>
   <g id="patch_5">
    <path d="M 139.482 286.416
L 173.502 286.416
L 173.502 113.882257
L 139.482 113.882257
z
" clip-path="url(#p9bf6810326)" style="fill: #37958b"/>
   </g>
   <g id="text_9">
    <text style="fill: #40516a; font: 11.3px 'DejaVu Sans'; text-anchor: middle" x="156.492" y="107.37637" transform="rotate(-0 156.492 107.37637)">87.18</text>
   </g>
   <g id="text_10">
    <text style="fill: #35445e; font: 11px 'DejaVu Sans'; text-anchor: middle" x="136.512" y="311.397641" transform="rotate(-0 136.512 311.397641)">Decision dev</text>
   </g>
   <g id="text_11">
    <text style="fill: #8190a6; font: 10px 'DejaVu Sans'; text-anchor: middle" x="136.512" y="326.845574" transform="rotate(-0 136.512 326.845574)">1,264 clean</text>
   </g>
   <g id="patch_6">
    <path d="M 207.522 286.416
L 241.542 286.416
L 241.542 120.194467
L 207.522 120.194467
z
" clip-path="url(#p9bf6810326)" style="fill: #7652bb"/>
   </g>
   <g id="text_12">
    <text style="fill: #40516a; font: 700 11.3px 'DejaVu Sans'; text-anchor: middle" x="224.532" y="113.68858" transform="rotate(-0 224.532 113.68858)">83.99</text>
   </g>
   <g id="patch_7">
    <path d="M 247.482 286.416
L 281.502 286.416
L 281.502 123.814537
L 247.482 123.814537
z
" clip-path="url(#p9bf6810326)" style="fill: #37958b"/>
   </g>
   <g id="text_13">
    <text style="fill: #40516a; font: 11.3px 'DejaVu Sans'; text-anchor: middle" x="264.492" y="117.30865" transform="rotate(-0 264.492 117.30865)">82.16</text>
   </g>
   <g id="text_14">
    <text style="fill: #35445e; font: 11px 'DejaVu Sans'; text-anchor: middle" x="244.512" y="311.397641" transform="rotate(-0 244.512 311.397641)">Transfer dev</text>
   </g>
   <g id="text_15">
    <text style="fill: #8190a6; font: 10px 'DejaVu Sans'; text-anchor: middle" x="244.512" y="326.845574" transform="rotate(-0 244.512 326.845574)">656 clean</text>
   </g>
   <g id="patch_8">
    <path d="M 315.522 286.416
L 349.542 286.416
L 349.542 178.36416
L 315.522 178.36416
z
" clip-path="url(#p9bf6810326)" style="fill: #7652bb"/>
   </g>
   <g id="text_16">
    <text style="fill: #40516a; font: 700 11.3px 'DejaVu Sans'; text-anchor: middle" x="332.532" y="171.858273" transform="rotate(-0 332.532 171.858273)">54.60</text>
   </g>
   <g id="patch_9">
    <path d="M 355.482 286.416
L 389.502 286.416
L 389.502 185.29056
L 355.482 185.29056
z
" clip-path="url(#p9bf6810326)" style="fill: #37958b"/>
   </g>
   <g id="text_17">
    <text style="fill: #40516a; font: 11.3px 'DejaVu Sans'; text-anchor: middle" x="372.492" y="178.784673" transform="rotate(-0 372.492 178.784673)">51.10</text>
   </g>
   <g id="text_18">
    <text style="fill: #35445e; font: 11px 'DejaVu Sans'; text-anchor: middle" x="352.512" y="311.397641" transform="rotate(-0 352.512 311.397641)">MMLU-Pro</text>
   </g>
   <g id="text_19">
    <text style="fill: #8190a6; font: 10px 'DejaVu Sans'; text-anchor: middle" x="352.512" y="326.845574" transform="rotate(-0 352.512 326.845574)">1,000 questions</text>
   </g>
   <g id="patch_10">
    <path d="M 423.522 286.416
L 457.542 286.416
L 457.542 100.887429
L 423.522 100.887429
z
" clip-path="url(#p9bf6810326)" style="fill: #7652bb"/>
   </g>
   <g id="text_20">
    <text style="fill: #40516a; font: 700 11.3px 'DejaVu Sans'; text-anchor: middle" x="440.532" y="94.381542" transform="rotate(-0 440.532 94.381542)">93.75</text>
   </g>
   <g id="patch_11">
    <path d="M 463.482 286.416
L 497.502 286.416
L 497.502 106.384571
L 463.482 106.384571
z
" clip-path="url(#p9bf6810326)" style="fill: #37958b"/>
   </g>
   <g id="text_21">
    <text style="fill: #40516a; font: 11.3px 'DejaVu Sans'; text-anchor: middle" x="480.492" y="99.878685" transform="rotate(-0 480.492 99.878685)">90.97</text>
   </g>
   <g id="text_22">
    <text style="fill: #35445e; font: 11px 'DejaVu Sans'; text-anchor: middle" x="460.512" y="311.397641" transform="rotate(-0 460.512 311.397641)">SemIf</text>
   </g>
   <g id="text_23">
    <text style="fill: #8190a6; font: 10px 'DejaVu Sans'; text-anchor: middle" x="460.512" y="326.845574" transform="rotate(-0 460.512 326.845574)">144 handwritten</text>
   </g>
   <g id="patch_12">
    <path d="M 531.522 286.416
L 565.542 286.416
L 565.542 143.376943
L 531.522 143.376943
z
" clip-path="url(#p9bf6810326)" style="fill: #7652bb"/>
   </g>
   <g id="text_24">
    <text style="fill: #40516a; font: 11.3px 'DejaVu Sans'; text-anchor: middle" x="548.532" y="136.871056" transform="rotate(-0 548.532 136.871056)">72.28</text>
   </g>
   <g id="patch_13">
    <path d="M 571.482 286.416
L 605.502 286.416
L 605.502 137.029726
L 571.482 137.029726
z
" clip-path="url(#p9bf6810326)" style="fill: #37958b"/>
   </g>
   <g id="text_25">
    <text style="fill: #40516a; font: 700 11.3px 'DejaVu Sans'; text-anchor: middle" x="588.492" y="130.523839" transform="rotate(-0 588.492 130.523839)">75.49</text>
   </g>
   <g id="text_26">
    <text style="fill: #35445e; font: 11px 'DejaVu Sans'; text-anchor: middle" x="568.512" y="311.397641" transform="rotate(-0 568.512 311.397641)">scienthoon</text>
   </g>
   <g id="text_27">
    <text style="fill: #8190a6; font: 10px 'DejaVu Sans'; text-anchor: middle" x="568.512" y="326.845574" transform="rotate(-0 568.512 326.845574)">873 questions</text>
   </g>
   <g id="patch_14">
    <path d="M 639.522 286.416
L 673.542 286.416
L 673.542 142.631357
L 639.522 142.631357
z
" clip-path="url(#p9bf6810326)" style="fill: #7652bb"/>
   </g>
   <g id="text_28">
    <text style="fill: #40516a; font: 700 11.3px 'DejaVu Sans'; text-anchor: middle" x="656.532" y="136.12547" transform="rotate(-0 656.532 136.12547)">72.66</text>
   </g>
   <g id="patch_15">
    <path d="M 679.482 286.416
L 713.502 286.416
L 713.502 147.269571
L 679.482 147.269571
z
" clip-path="url(#p9bf6810326)" style="fill: #37958b"/>
   </g>
   <g id="text_29">
    <text style="fill: #40516a; font: 11.3px 'DejaVu Sans'; text-anchor: middle" x="696.492" y="140.763685" transform="rotate(-0 696.492 140.763685)">70.31</text>
   </g>
   <g id="text_30">
    <text style="fill: #35445e; font: 11px 'DejaVu Sans'; text-anchor: middle" x="676.512" y="311.397641" transform="rotate(-0 676.512 311.397641)">WANLI</text>
   </g>
   <g id="text_31">
    <text style="fill: #8190a6; font: 10px 'DejaVu Sans'; text-anchor: middle" x="676.512" y="326.845574" transform="rotate(-0 676.512 326.845574)">256 questions</text>
   </g>
   <g id="patch_16">
    <path d="M 747.522 286.416
L 781.542 286.416
L 781.542 125.356853
L 747.522 125.356853
z
" clip-path="url(#p9bf6810326)" style="fill: #7652bb"/>
   </g>
   <g id="text_32">
    <text style="fill: #40516a; font: 700 11.3px 'DejaVu Sans'; text-anchor: middle" x="764.532" y="118.850967" transform="rotate(-0 764.532 118.850967)">81.39</text>
   </g>
   <g id="patch_17">
    <path d="M 787.482 286.416
L 821.502 286.416
L 821.502 136.493922
L 787.482 136.493922
z
" clip-path="url(#p9bf6810326)" style="fill: #37958b"/>
   </g>
   <g id="text_33">
    <text style="fill: #40516a; font: 11.3px 'DejaVu Sans'; text-anchor: middle" x="804.492" y="129.988035" transform="rotate(-0 804.492 129.988035)">75.76</text>
   </g>
   <g id="text_34">
    <text style="fill: #35445e; font: 11px 'DejaVu Sans'; text-anchor: middle" x="784.512" y="311.397641" transform="rotate(-0 784.512 311.397641)">JevBench</text>
   </g>
   <g id="text_35">
    <text style="fill: #8190a6; font: 10px 'DejaVu Sans'; text-anchor: middle" x="784.512" y="326.845574" transform="rotate(-0 784.512 326.845574)">231 public</text>
   </g>
  </g>
  <g id="text_36">
   <text style="fill: #35445e; font: 600 15px 'DejaVu Sans'; text-anchor: start" x="63.072" y="22.464" transform="rotate(-0 63.072 22.464)">Qev-9B</text>
  </g>
  <g id="text_37">
   <text style="fill: #7c89a0; font: 11px 'DejaVu Sans'; text-anchor: start" x="63.072" y="43.056" transform="rotate(-0 63.072 43.056)">Decision accuracy · seven benchmark panels</text>
  </g>
  <g id="text_38">
   <text style="fill: #8190a6; font: 10px 'DejaVu Sans'; text-anchor: start" x="63.072" y="353.0592" transform="rotate(-0 63.072 353.0592)">Bold labels compare Qev with Kev. Jev and Qwen-base references are included in the detailed table.</text>
  </g>
  <g id="legend_1">
   <g id="patch_18">
    <path d="M 567.1325 34.7041
L 579.2325 34.7041
L 579.2325 24.5016
L 567.1325 24.5016
z
" style="fill: #7652bb"/>
   </g>
   <g id="text_39">
    <text style="fill: #46546b; font: 11px 'DejaVu Sans'; text-anchor: start" x="588.0325" y="33.3566" transform="rotate(-0 588.0325 33.3566)">Qev-9B · BF16 backbone</text>
   </g>
   <g id="patch_19">
    <path d="M 748.947031 34.7041
L 761.047031 34.7041
L 761.047031 24.5016
L 748.947031 24.5016
z
" style="fill: #37958b"/>
   </g>
   <g id="text_40">
    <text style="fill: #46546b; font: 11px 'DejaVu Sans'; text-anchor: start" x="769.847031" y="33.3566" transform="rotate(-0 769.847031 33.3566)">Kev-9B · FP32</text>
   </g>
  </g>
 </g>
 <defs>
  <clipPath id="p9bf6810326">
   <rect x="63.072" y="78.624" width="794.88" height="207.792"/>
  </clipPath>
 </defs>
</svg>
